<mxfile host="app.diagrams.net" modified="2023-04-18T13:06:19.598Z" agent="Mozilla/5.0 (Windows NT 10.0; Win64; x64) AppleWebKit/537.36 (KHTML, like Gecko) Chrome/112.0.0.0 Safari/537.36" etag="dAkYuCUuEQDeJAWtFDgF" version="21.1.6" type="github">
  <diagram name="第 1 页" id="FvLirUPuwIgb5PK6brYg">
    <mxGraphModel dx="1434" dy="796" grid="1" gridSize="10" guides="1" tooltips="1" connect="1" arrows="1" fold="1" page="1" pageScale="1" pageWidth="827" pageHeight="1169" math="0" shadow="0">
      <root>
        <mxCell id="0" />
        <mxCell id="1" parent="0" />
        <mxCell id="0qi9Cj2gWTsvopHAAKJu-1" value="4" style="rounded=0;whiteSpace=wrap;html=1;fillColor=#ffe6cc;strokeColor=#d79b00;" vertex="1" parent="1">
          <mxGeometry x="160" y="190" width="80" height="40" as="geometry" />
        </mxCell>
        <mxCell id="0qi9Cj2gWTsvopHAAKJu-4" value="2" style="rounded=0;whiteSpace=wrap;html=1;fillColor=#dae8fc;strokeColor=#6c8ebf;" vertex="1" parent="1">
          <mxGeometry x="240" y="190" width="50" height="40" as="geometry" />
        </mxCell>
        <mxCell id="0qi9Cj2gWTsvopHAAKJu-5" value="" style="rounded=0;whiteSpace=wrap;html=1;" vertex="1" parent="1">
          <mxGeometry x="290" y="190" width="390" height="40" as="geometry" />
        </mxCell>
        <mxCell id="0qi9Cj2gWTsvopHAAKJu-6" value="原始码流前50字节" style="text;strokeColor=none;align=center;fillColor=none;html=1;verticalAlign=middle;whiteSpace=wrap;rounded=0;" vertex="1" parent="1">
          <mxGeometry x="330" y="260" width="180" height="60" as="geometry" />
        </mxCell>
        <mxCell id="0qi9Cj2gWTsvopHAAKJu-7" value="" style="endArrow=classic;html=1;rounded=0;" edge="1" parent="1">
          <mxGeometry width="50" height="50" relative="1" as="geometry">
            <mxPoint x="180" y="210" as="sourcePoint" />
            <mxPoint x="120" y="160" as="targetPoint" />
          </mxGeometry>
        </mxCell>
        <mxCell id="0qi9Cj2gWTsvopHAAKJu-8" value="跟踪任务taskId" style="text;strokeColor=none;align=center;fillColor=none;html=1;verticalAlign=middle;whiteSpace=wrap;rounded=0;" vertex="1" parent="1">
          <mxGeometry x="20" y="110" width="180" height="60" as="geometry" />
        </mxCell>
        <mxCell id="0qi9Cj2gWTsvopHAAKJu-9" value="" style="endArrow=classic;html=1;rounded=0;" edge="1" parent="1">
          <mxGeometry width="50" height="50" relative="1" as="geometry">
            <mxPoint x="277.88" y="190" as="sourcePoint" />
            <mxPoint x="277.88" y="140" as="targetPoint" />
          </mxGeometry>
        </mxCell>
        <mxCell id="0qi9Cj2gWTsvopHAAKJu-10" value="跟踪类型traceType" style="text;strokeColor=none;align=center;fillColor=none;html=1;verticalAlign=middle;whiteSpace=wrap;rounded=0;" vertex="1" parent="1">
          <mxGeometry x="200" y="90" width="180" height="60" as="geometry" />
        </mxCell>
        <mxCell id="0qi9Cj2gWTsvopHAAKJu-11" value="2" style="rounded=0;whiteSpace=wrap;html=1;fillColor=#dae8fc;strokeColor=#6c8ebf;" vertex="1" parent="1">
          <mxGeometry x="680" y="190" width="50" height="40" as="geometry" />
        </mxCell>
        <mxCell id="0qi9Cj2gWTsvopHAAKJu-14" value="消息体的长度" style="text;strokeColor=none;align=center;fillColor=none;html=1;verticalAlign=middle;whiteSpace=wrap;rounded=0;" vertex="1" parent="1">
          <mxGeometry x="615" y="110" width="180" height="60" as="geometry" />
        </mxCell>
        <mxCell id="0qi9Cj2gWTsvopHAAKJu-17" value="&lt;b&gt;消息体......&lt;/b&gt;" style="rounded=0;whiteSpace=wrap;html=1;fillColor=#e1d5e7;strokeColor=#9673a6;" vertex="1" parent="1">
          <mxGeometry x="730" y="190" width="180" height="40" as="geometry" />
        </mxCell>
        <mxCell id="0qi9Cj2gWTsvopHAAKJu-27" value="" style="endArrow=classic;html=1;rounded=0;exitX=0.5;exitY=0;exitDx=0;exitDy=0;" edge="1" parent="1" source="0qi9Cj2gWTsvopHAAKJu-11">
          <mxGeometry width="50" height="50" relative="1" as="geometry">
            <mxPoint x="710" y="180" as="sourcePoint" />
            <mxPoint x="705" y="150" as="targetPoint" />
          </mxGeometry>
        </mxCell>
        <mxCell id="0qi9Cj2gWTsvopHAAKJu-28" value="" style="shape=curlyBracket;whiteSpace=wrap;html=1;rounded=1;labelPosition=left;verticalLabelPosition=middle;align=right;verticalAlign=middle;direction=north;" vertex="1" parent="1">
          <mxGeometry x="160" y="260" width="520" height="20" as="geometry" />
        </mxCell>
        <mxCell id="0qi9Cj2gWTsvopHAAKJu-29" value="" style="shape=curlyBracket;whiteSpace=wrap;html=1;rounded=1;flipH=1;labelPosition=right;verticalLabelPosition=middle;align=left;verticalAlign=middle;direction=north;" vertex="1" parent="1">
          <mxGeometry x="160" y="310" width="750" height="10" as="geometry" />
        </mxCell>
        <mxCell id="0qi9Cj2gWTsvopHAAKJu-30" value="原始码流总长度=50+消息体长度" style="text;strokeColor=none;align=center;fillColor=none;html=1;verticalAlign=middle;whiteSpace=wrap;rounded=0;" vertex="1" parent="1">
          <mxGeometry x="445" y="310" width="180" height="60" as="geometry" />
        </mxCell>
        <mxCell id="0qi9Cj2gWTsvopHAAKJu-32" value="" style="endArrow=none;dashed=1;html=1;dashPattern=1 3;strokeWidth=2;rounded=0;exitX=0.5;exitY=0;exitDx=0;exitDy=0;" edge="1" parent="1" source="0qi9Cj2gWTsvopHAAKJu-29">
          <mxGeometry width="50" height="50" relative="1" as="geometry">
            <mxPoint x="110" y="280" as="sourcePoint" />
            <mxPoint x="160" y="230" as="targetPoint" />
          </mxGeometry>
        </mxCell>
        <mxCell id="0qi9Cj2gWTsvopHAAKJu-33" value="" style="endArrow=none;dashed=1;html=1;dashPattern=1 3;strokeWidth=2;rounded=0;exitX=0.75;exitY=1;exitDx=0;exitDy=0;entryX=1;entryY=1;entryDx=0;entryDy=0;" edge="1" parent="1" source="0qi9Cj2gWTsvopHAAKJu-29" target="0qi9Cj2gWTsvopHAAKJu-17">
          <mxGeometry width="50" height="50" relative="1" as="geometry">
            <mxPoint x="860" y="290" as="sourcePoint" />
            <mxPoint x="910" y="240" as="targetPoint" />
          </mxGeometry>
        </mxCell>
        <mxCell id="0qi9Cj2gWTsvopHAAKJu-34" value="文件头长度357" style="rounded=0;whiteSpace=wrap;html=1;fillColor=#dae8fc;strokeColor=#6c8ebf;" vertex="1" parent="1">
          <mxGeometry x="160" y="480" width="680" height="40" as="geometry" />
        </mxCell>
        <mxCell id="0qi9Cj2gWTsvopHAAKJu-35" value="消息头52" style="rounded=0;whiteSpace=wrap;html=1;fillColor=#f8cecc;strokeColor=#b85450;" vertex="1" parent="1">
          <mxGeometry x="160" y="520" width="120" height="40" as="geometry" />
        </mxCell>
        <mxCell id="0qi9Cj2gWTsvopHAAKJu-38" value="&lt;b&gt;原始码流消息体......&lt;/b&gt;" style="rounded=0;whiteSpace=wrap;html=1;fillColor=#e1d5e7;strokeColor=#9673a6;" vertex="1" parent="1">
          <mxGeometry x="400" y="520" width="360" height="40" as="geometry" />
        </mxCell>
        <mxCell id="0qi9Cj2gWTsvopHAAKJu-39" value="" style="endArrow=classic;html=1;rounded=0;" edge="1" parent="1">
          <mxGeometry width="50" height="50" relative="1" as="geometry">
            <mxPoint x="350" y="600" as="sourcePoint" />
            <mxPoint x="350" y="640" as="targetPoint" />
          </mxGeometry>
        </mxCell>
        <mxCell id="0qi9Cj2gWTsvopHAAKJu-40" value="原始码流前50减去2=48" style="text;strokeColor=none;align=center;fillColor=none;html=1;verticalAlign=middle;whiteSpace=wrap;rounded=0;" vertex="1" parent="1">
          <mxGeometry x="250" y="620" width="180" height="60" as="geometry" />
        </mxCell>
        <mxCell id="0qi9Cj2gWTsvopHAAKJu-42" value="" style="endArrow=classic;html=1;rounded=0;exitX=0.5;exitY=1;exitDx=0;exitDy=0;" edge="1" parent="1" source="0qi9Cj2gWTsvopHAAKJu-51">
          <mxGeometry width="50" height="50" relative="1" as="geometry">
            <mxPoint x="290" y="670" as="sourcePoint" />
            <mxPoint x="260" y="670" as="targetPoint" />
          </mxGeometry>
        </mxCell>
        <mxCell id="0qi9Cj2gWTsvopHAAKJu-43" value="前2个字节任务id" style="text;strokeColor=none;align=center;fillColor=none;html=1;verticalAlign=middle;whiteSpace=wrap;rounded=0;" vertex="1" parent="1">
          <mxGeometry x="140" y="630" width="180" height="100" as="geometry" />
        </mxCell>
        <mxCell id="0qi9Cj2gWTsvopHAAKJu-44" value="" style="endArrow=classic;html=1;rounded=0;" edge="1" parent="1">
          <mxGeometry width="50" height="50" relative="1" as="geometry">
            <mxPoint x="385" y="600" as="sourcePoint" />
            <mxPoint x="440" y="660" as="targetPoint" />
          </mxGeometry>
        </mxCell>
        <mxCell id="0qi9Cj2gWTsvopHAAKJu-46" value="最后2个字节消息体长度" style="text;strokeColor=none;align=center;fillColor=none;html=1;verticalAlign=middle;whiteSpace=wrap;rounded=0;" vertex="1" parent="1">
          <mxGeometry x="380" y="670" width="170" height="50" as="geometry" />
        </mxCell>
        <mxCell id="0qi9Cj2gWTsvopHAAKJu-47" value="自研消息跟踪的PTMF文件" style="text;strokeColor=none;align=center;fillColor=none;html=1;verticalAlign=middle;whiteSpace=wrap;rounded=0;" vertex="1" parent="1">
          <mxGeometry x="380" y="410" width="180" height="100" as="geometry" />
        </mxCell>
        <mxCell id="0qi9Cj2gWTsvopHAAKJu-48" value="消息头52" style="rounded=0;whiteSpace=wrap;html=1;fillColor=#f8cecc;strokeColor=#b85450;" vertex="1" parent="1">
          <mxGeometry x="160" y="560" width="120" height="40" as="geometry" />
        </mxCell>
        <mxCell id="0qi9Cj2gWTsvopHAAKJu-49" value="48" style="rounded=0;whiteSpace=wrap;html=1;fillColor=#d5e8d4;strokeColor=#82b366;" vertex="1" parent="1">
          <mxGeometry x="280" y="560" width="120" height="40" as="geometry" />
        </mxCell>
        <mxCell id="0qi9Cj2gWTsvopHAAKJu-50" value="&lt;b&gt;原始码流消息体......&lt;/b&gt;" style="rounded=0;whiteSpace=wrap;html=1;fillColor=#e1d5e7;strokeColor=#9673a6;" vertex="1" parent="1">
          <mxGeometry x="400" y="560" width="360" height="40" as="geometry" />
        </mxCell>
        <mxCell id="0qi9Cj2gWTsvopHAAKJu-51" value="" style="rounded=0;whiteSpace=wrap;html=1;fillColor=#d5e8d4;strokeColor=#82b366;" vertex="1" parent="1">
          <mxGeometry x="280" y="560" width="30" height="40" as="geometry" />
        </mxCell>
        <mxCell id="0qi9Cj2gWTsvopHAAKJu-52" value="" style="rounded=0;whiteSpace=wrap;html=1;fillColor=#d5e8d4;strokeColor=#82b366;" vertex="1" parent="1">
          <mxGeometry x="380" y="560" width="20" height="40" as="geometry" />
        </mxCell>
        <mxCell id="0qi9Cj2gWTsvopHAAKJu-54" value="48" style="rounded=0;whiteSpace=wrap;html=1;fillColor=#d5e8d4;strokeColor=#82b366;" vertex="1" parent="1">
          <mxGeometry x="280" y="520" width="120" height="40" as="geometry" />
        </mxCell>
      </root>
    </mxGraphModel>
  </diagram>
</mxfile>
